<svg width="66" height="67" viewBox="0 0 66 67" fill="none" xmlns="http://www.w3.org/2000/svg">
<path d="M32.7533 0.523926C14.6571 0.523926 0 15.6111 0 34.2382C0 49.1568 9.37564 61.7575 22.3951 66.2247C24.0328 66.5197 24.6469 65.5083 24.6469 64.6233C24.6469 63.8225 24.6059 61.1675 24.6059 58.344C16.3767 59.9033 14.2477 56.279 13.5926 54.3825C13.2242 53.4132 11.6274 50.4211 10.2354 49.6204C9.08905 48.9882 7.45138 47.429 10.1945 47.3868C12.7738 47.3447 14.6162 49.8311 15.2303 50.8425C18.1781 55.9418 22.8864 54.509 24.7697 53.624C25.0563 51.4325 25.9161 49.9575 26.8577 49.1147C19.5701 48.2718 11.955 45.364 11.955 32.4682C11.955 28.8018 13.2242 25.7675 15.3122 23.4075C14.9846 22.5647 13.8383 19.1089 15.6397 14.4732C15.6397 14.4732 18.3828 13.5882 24.6469 17.9289C27.2671 17.1704 30.0512 16.7911 32.8352 16.7911C35.6192 16.7911 38.4033 17.1704 41.0235 17.9289C47.2876 13.5461 50.0307 14.4732 50.0307 14.4732C51.8321 19.1089 50.6858 22.5647 50.3582 23.4075C52.4463 25.7675 53.7155 28.7597 53.7155 32.4682C53.7155 45.4061 46.0594 48.2718 38.7718 49.1147C39.9591 50.1682 40.9826 52.1911 40.9826 55.3518C40.9826 59.8611 40.9417 63.4854 40.9417 64.6233C40.9417 65.5083 41.5558 66.5618 43.1935 66.2247C49.6966 63.9669 55.3477 59.6659 59.3507 53.9275C63.3537 48.1892 65.5068 41.3027 65.5067 34.2382C65.5067 15.6111 50.8495 0.523926 32.7533 0.523926Z" fill="white"/>
</svg>
