<svg width="41" height="66" viewBox="0 0 41 66" fill="none" xmlns="http://www.w3.org/2000/svg">
<path fill-rule="evenodd" clip-rule="evenodd" d="M8.92694 23.7533C7.75555 23.7533 6.59562 23.9908 5.51339 24.4522C4.43117 24.9136 3.44783 25.5899 2.61953 26.4425C1.79123 27.2951 1.13418 28.3073 0.685908 29.4213C0.237634 30.5353 0.00691122 31.7292 0.00691122 32.935C0.00691122 34.1408 0.237634 35.3347 0.685908 36.4487C1.13418 37.5627 1.79123 38.5749 2.61953 39.4275C3.44783 40.2801 4.43117 40.9564 5.51339 41.4178C6.59562 41.8793 7.75555 42.1167 8.92694 42.1167H17.847V33.1199C17.8456 32.9966 17.8456 32.8734 17.847 32.7502V23.7533H8.92694ZM17.847 18.4212H8.92694C6.56074 18.4212 4.29146 17.4537 2.61831 15.7314C0.945152 14.0092 0.00518384 11.6733 0.00518384 9.23772C0.00518384 6.8021 0.945152 4.46623 2.61831 2.74399C4.29146 1.02175 6.56074 0.0541992 8.92694 0.0541992H17.847V18.4212ZM23.027 0.0541992V18.4212H31.947C34.2828 18.3739 36.5075 17.3856 38.1431 15.6685C39.7788 13.9514 40.695 11.6425 40.695 9.23772C40.695 6.83292 39.7788 4.52403 38.1431 2.80693C36.5075 1.08984 34.2828 0.101505 31.947 0.0541992H23.027ZM31.947 23.7497C29.6056 23.7494 27.358 24.6967 25.6892 26.3872C24.0203 28.0778 23.0642 30.3759 23.027 32.7857V33.0807C23.0556 34.8901 23.6029 36.6504 24.6003 38.1405C25.5977 39.6307 27.0006 40.7843 28.6328 41.4564C30.265 42.1285 32.0538 42.2892 33.7745 41.9182C35.4951 41.5472 37.0709 40.6612 38.3039 39.3714C39.537 38.0815 40.3722 36.4454 40.7048 34.6685C41.0374 32.8916 40.8525 31.0532 40.1733 29.3841C39.4941 27.7151 38.3509 26.2898 36.8873 25.2873C35.4238 24.2849 33.705 23.7499 31.947 23.7497ZM8.92694 47.4488C7.1619 47.4481 5.43629 47.9862 3.96838 48.995C2.50046 50.0039 1.35618 51.4382 0.680256 53.1165C0.00432926 54.7949 -0.172879 56.6418 0.171045 58.4239C0.51497 60.2059 1.36458 61.8429 2.61241 63.1278C3.86024 64.4127 5.45025 65.2879 7.18133 65.6426C8.91241 65.9973 10.7068 65.8156 12.3376 65.1205C13.9683 64.4254 15.3622 63.2481 16.3429 61.7375C17.3235 60.2269 17.847 58.4509 17.847 56.6341V47.4488H8.92694Z" fill="white"/>
</svg>
